<svg id="Layer_1" data-name="Layer 1" xmlns="http://www.w3.org/2000/svg" viewBox="0 0 38.73 42.01"><defs><style>.cls-1{fill:#fff;}.cls-2{opacity:0.4;}.cls-3{fill:#333;}</style></defs><path class="cls-1" d="M293.36,356.82c0-.29,0-1.36,0-1.68l-.43-8a1.48,1.48,0,0,0-.47-1,2.27,2.27,0,0,0-1.1-1.4,1.88,1.88,0,0,0-1.44-.67h-.62a1.87,1.87,0,0,0-1.44.67,2.33,2.33,0,0,0-1,1l-2,0a5.65,5.65,0,0,0,.84-3.86,1.52,1.52,0,0,0-.94-1.19,1.49,1.49,0,0,0-.55-.1,1.51,1.51,0,0,0-.95.34,3.18,3.18,0,0,1-2.07.68,6.06,6.06,0,0,1-.92-.08,2,2,0,0,0-.2-.35,1.52,1.52,0,0,0,.53-.25,4.08,4.08,0,0,0,1.58-4.27,1.5,1.5,0,0,0-1.44-1.07,1.55,1.55,0,0,0-.37,0,2.45,2.45,0,0,1-.65.1c-.49,0-.71-.37-1-2.53a9.67,9.67,0,0,0-.8-3,1.47,1.47,0,0,0-.83-.72,3.17,3.17,0,0,1-.37-.15,2.19,2.19,0,0,0-1.3-.86,1.43,1.43,0,0,0-.82,0,2.29,2.29,0,0,0-1.31.86,2.23,2.23,0,0,1-.36.15,1.47,1.47,0,0,0-.83.72,9.67,9.67,0,0,0-.8,3c-.33,2.16-.55,2.53-1,2.53a2.45,2.45,0,0,1-.65-.1,1.55,1.55,0,0,0-.37,0,1.5,1.5,0,0,0-1.44,1.07,4.08,4.08,0,0,0,1.58,4.27,1.52,1.52,0,0,0,.53.25,2,2,0,0,0-.2.35,6.06,6.06,0,0,1-.92.08,3.18,3.18,0,0,1-2.07-.68,1.51,1.51,0,0,0-.95-.34,1.49,1.49,0,0,0-.55.1,1.52,1.52,0,0,0-.94,1.19,5.65,5.65,0,0,0,.84,3.86l-2,0a2.33,2.33,0,0,0-1-1,1.87,1.87,0,0,0-1.44-.67h-.62a1.88,1.88,0,0,0-1.44.67,2.27,2.27,0,0,0-1.1,1.4,1.48,1.48,0,0,0-.47,1l-.43,8c0,.32,0,1.39,0,1.68s-.05,5.37,4.67,7.64c.69.34,2.2.78,7.26.78.92,0,1.72,0,2.23,0L274,368a1.51,1.51,0,0,0,1,.37,1.49,1.49,0,0,0,1-.37l3.21-2.81c.51,0,1.31,0,2.23,0,5.06,0,6.57-.44,7.26-.78C293.41,362.19,293.36,357,293.36,356.82Z" transform="translate(-255.64 -327.38)"/><g class="cls-2"><path d="M275,328.38a1.45,1.45,0,0,1,.41.06,2.19,2.19,0,0,1,1.3.86,3.17,3.17,0,0,0,.37.15,1.47,1.47,0,0,1,.83.72,9.67,9.67,0,0,1,.8,3c.33,2.16.55,2.53,1,2.53a2.45,2.45,0,0,0,.65-.1,1.55,1.55,0,0,1,.37,0,1.5,1.5,0,0,1,1.44,1.07,4.08,4.08,0,0,1-1.58,4.27,1.52,1.52,0,0,1-.53.25,2,2,0,0,1,.2.35,6.06,6.06,0,0,0,.92.08,3.18,3.18,0,0,0,2.07-.68,1.51,1.51,0,0,1,.95-.34,1.49,1.49,0,0,1,.55.1,1.52,1.52,0,0,1,.94,1.19,5.65,5.65,0,0,1-.84,3.86l2,0a2.33,2.33,0,0,1,1-1,1.87,1.87,0,0,1,1.44-.67h.62a1.88,1.88,0,0,1,1.44.67,2.27,2.27,0,0,1,1.1,1.4,1.48,1.48,0,0,1,.47,1l.43,8c0,.32,0,1.39,0,1.68s.05,5.37-4.67,7.64c-.69.34-2.2.78-7.26.78-.92,0-1.72,0-2.23,0L276,368a1.49,1.49,0,0,1-1,.37,1.51,1.51,0,0,1-1-.37l-3.21-2.81c-.51,0-1.31,0-2.23,0-5.06,0-6.57-.44-7.26-.78-4.72-2.27-4.67-7.42-4.67-7.64s0-1.36,0-1.68l.43-8a1.48,1.48,0,0,1,.47-1,2.27,2.27,0,0,1,1.1-1.4,1.88,1.88,0,0,1,1.44-.67h.62a1.87,1.87,0,0,1,1.44.67,2.33,2.33,0,0,1,1,1l2,0a5.65,5.65,0,0,1-.84-3.86,1.52,1.52,0,0,1,.94-1.19,1.49,1.49,0,0,1,.55-.1,1.51,1.51,0,0,1,.95.34,3.18,3.18,0,0,0,2.07.68,6.06,6.06,0,0,0,.92-.08,2,2,0,0,1,.2-.35,1.52,1.52,0,0,1-.53-.25,4.08,4.08,0,0,1-1.58-4.27,1.5,1.5,0,0,1,1.44-1.07,1.55,1.55,0,0,1,.37,0,2.45,2.45,0,0,0,.65.1c.49,0,.71-.37,1-2.53a9.67,9.67,0,0,1,.8-3,1.47,1.47,0,0,1,.83-.72,2.23,2.23,0,0,0,.36-.15,2.29,2.29,0,0,1,1.31-.86,1.45,1.45,0,0,1,.41-.06m0-1a2.59,2.59,0,0,0-.68.09,3.26,3.26,0,0,0-1.66,1l-.07,0a2.51,2.51,0,0,0-1.39,1.19,10.42,10.42,0,0,0-.9,3.35,14.58,14.58,0,0,1-.32,1.65l-.13,0a2.15,2.15,0,0,0-.62-.08,2.51,2.51,0,0,0-2.4,1.79,4.62,4.62,0,0,0,.57,3.82l0,0a2.5,2.5,0,0,0-4.07,1.58,7,7,0,0,0,.17,2.73,3.22,3.22,0,0,0-.67-.55,2.86,2.86,0,0,0-2.08-.89h-.62a2.87,2.87,0,0,0-2.08.89,3.32,3.32,0,0,0-1.35,1.67,2.47,2.47,0,0,0-.58,1.47l-.43,8c0,.2,0,.59,0,1.12v.59c0,.24-.06,6,5.23,8.56.85.41,2.5.88,7.7.88l1.87,0,2.91,2.55a2.51,2.51,0,0,0,3.3,0l2.91-2.55,1.87,0c5.2,0,6.85-.47,7.7-.88,5.29-2.55,5.23-8.32,5.23-8.56v-.58c0-.53,0-.93,0-1.13l-.43-8a2.47,2.47,0,0,0-.58-1.47,3.32,3.32,0,0,0-1.35-1.67,2.87,2.87,0,0,0-2.08-.89h-.62a2.86,2.86,0,0,0-2.08.89,3.22,3.22,0,0,0-.67.55,7,7,0,0,0,.17-2.73,2.5,2.5,0,0,0-4.07-1.58l0,0a4.62,4.62,0,0,0,.57-3.82,2.51,2.51,0,0,0-2.4-1.79,2.15,2.15,0,0,0-.62.08l-.13,0a14.58,14.58,0,0,1-.32-1.65,10.42,10.42,0,0,0-.9-3.35,2.51,2.51,0,0,0-1.39-1.19l-.08,0a3.27,3.27,0,0,0-1.65-1,2.59,2.59,0,0,0-.68-.09Z" transform="translate(-255.64 -327.38)"/></g><path class="cls-3" d="M291.86,356.85H258.14a7.12,7.12,0,0,0,3.82,6.26c1.82.88,9.39.59,9.39.59l3.65,3.19,3.65-3.19s7.57.29,9.39-.59A7.12,7.12,0,0,0,291.86,356.85Z" transform="translate(-255.64 -327.38)"/><path class="cls-3" d="M291.86,355.22l-.43-8H291v-.49a.79.79,0,0,0-.73-.79.39.39,0,0,0-.39-.39h-.62a.39.39,0,0,0-.39.39.8.8,0,0,0-.74.79v.51l-7.1,0v-1.5a6.84,6.84,0,0,0,1.74-.16c1.8-.9,1.43-3.51,1.43-3.51-2.26,1.87-5.33.61-5.33.61v-.6l-.91,0v-.76h-.73v-1.6h2.48a2.69,2.69,0,0,0,1-2.64c-4.13,1.06-3-4-4.18-6.22-1.39-.49-.79-.77-1.59-1-.8.22-.2.5-1.59,1-1.15,2.2-.05,7.28-4.18,6.22a2.69,2.69,0,0,0,1,2.64h2.48v1.6H272v.76l-.91,0v.6s-3.07,1.26-5.33-.61c0,0-.37,2.61,1.43,3.51a6.84,6.84,0,0,0,1.74.16v1.5l-7.1,0v-.51a.8.8,0,0,0-.74-.79.39.39,0,0,0-.39-.39h-.62a.39.39,0,0,0-.39.39.79.79,0,0,0-.73.79v.49h-.39l-.43,8h5.54v-3.59a1.84,1.84,0,0,1,1.93-1.63,1.86,1.86,0,0,1,2,1.63v3.59h5.21v-5.81a2.33,2.33,0,0,1,4.44,0v5.81h5.21v-3.59a1.86,1.86,0,0,1,2-1.63,1.84,1.84,0,0,1,1.93,1.63v3.59Zm-15.37-13.89h-.67v.75h-1.64v-.75h-.67v-1.6h3Z" transform="translate(-255.64 -327.38)"/><script xmlns=""/></svg>